<?xml version="1.0" standalone="no"?>
<!DOCTYPE svg PUBLIC "-//W3C//DTD SVG 20010904//EN"
 "http://www.w3.org/TR/2001/REC-SVG-20010904/DTD/svg10.dtd">
<svg version="1.0" xmlns="http://www.w3.org/2000/svg"
 width="1000.000000pt" height="780.000000pt" viewBox="0 0 1000.000000 780.000000"
 preserveAspectRatio="xMidYMid meet">

<g transform="translate(0.000000,780.000000) scale(0.100000,-0.100000)"
fill="#000000" stroke="none">
<path d="M7120 5070 l0 -2590 -210 0 -210 0 0 -107 0 -107 28 27 c15 14 47 35
72 46 43 20 63 21 580 21 l535 0 50 -24 c28 -13 61 -35 74 -50 44 -48 51 -37
51 84 l0 110 -145 0 -145 0 0 530 0 530 28 0 c76 -1 243 -51 357 -108 321
-160 542 -442 824 -1053 135 -294 160 -341 231 -442 149 -208 391 -375 607
-418 l63 -13 0 -163 0 -163 35 0 35 0 0 365 0 365 -35 0 -35 0 0 -165 c0 -91
-2 -165 -4 -165 -2 0 -35 9 -72 21 -146 44 -303 147 -429 280 -108 116 -194
252 -294 466 -162 346 -261 523 -393 701 -224 303 -503 492 -813 551 -33 7
-70 14 -82 17 l-23 4 0 1795 0 1795 -140 0 -140 0 0 225 0 225 -200 0 -200 0
0 -2590z"/>
<path d="M1743 6136 c-191 -46 -354 -209 -397 -396 l-15 -64 181 -271 c99
-148 191 -281 203 -294 20 -21 35 -24 118 -29 165 -8 299 41 409 151 107 108
158 230 158 382 0 146 -45 258 -146 365 -132 139 -330 200 -511 156z"/>
<path d="M1020 5779 c-13 -6 -39 -21 -58 -36 l-33 -25 38 -25 c101 -68 135
-114 393 -543 117 -195 219 -361 226 -369 30 -33 126 71 139 150 15 85 4 106
-223 444 -118 176 -226 333 -241 349 -14 16 -44 37 -66 47 -44 20 -134 24
-175 8z"/>
<path d="M705 5720 c-56 -12 -429 -155 -488 -187 -62 -34 -122 -100 -155 -171
-24 -50 -27 -70 -27 -157 l0 -100 199 -380 c289 -552 570 -1086 805 -1530
l206 -390 5 -630 c6 -703 3 -671 78 -769 52 -68 121 -105 211 -113 l70 -6 3
-144 c2 -80 1 -147 -1 -149 -2 -2 -105 -4 -228 -4 l-223 0 0 -40 0 -40 4420 0
4420 0 0 40 0 40 -2271 0 c-2067 0 -2271 1 -2265 16 3 9 6 75 6 149 l0 133 89
4 c77 4 96 8 137 34 30 18 60 48 79 78 l30 49 0 546 0 546 -27 46 c-32 54 -86
94 -148 108 -28 7 -286 11 -692 11 l-646 0 -4 198 c-4 178 -6 202 -27 247 -34
76 -84 130 -149 162 l-57 28 -892 3 -892 3 -29 77 -29 77 786 5 786 5 48 25
c119 60 166 204 107 320 -10 19 -27 43 -38 53 -17 16 -20 16 -32 2 -8 -9 -31
-25 -52 -36 -37 -19 -58 -20 -476 -17 -492 3 -461 -1 -552 84 l-47 44 -358 2
-359 3 -190 316 c-105 174 -312 517 -461 764 -300 497 -347 560 -458 615 -68
33 -148 44 -212 30z m4025 -4564 c0 -74 3 -141 6 -150 6 -15 -104 -16 -1195
-16 l-1201 0 0 150 0 150 1195 0 1195 0 0 -134z"/>
<path d="M2178 5040 c-48 -14 -144 -78 -186 -124 -99 -107 -135 -260 -97 -411
8 -33 63 -156 121 -272 l107 -213 291 0 291 1 -30 27 c-17 15 -125 111 -242
215 -215 191 -240 221 -250 296 -21 154 150 278 292 212 22 -10 129 -98 237
-195 108 -97 199 -176 202 -176 3 0 3 7 0 15 -7 17 -29 16 669 15 250 0 392 3
420 11 57 15 99 49 122 98 l18 41 209 0 c195 0 209 1 228 20 11 11 20 33 20
50 0 17 -9 39 -20 50 -19 19 -33 20 -243 20 l-224 0 -24 26 c-50 55 -36 54
-736 54 l-648 0 -25 37 c-32 47 -128 127 -191 158 -95 49 -234 68 -311 45z"/>
<path d="M2354 4760 c-50 -11 -98 -46 -122 -88 -29 -52 -30 -134 -3 -179 23
-37 609 -561 654 -584 27 -14 92 -18 447 -24 376 -7 419 -6 455 9 149 63 166
250 30 328 -39 23 -47 23 -411 28 l-371 5 -79 71 c-314 280 -458 405 -482 417
-37 19 -81 25 -118 17z"/>
<path d="M2400 3485 c0 -2 12 -29 27 -60 l27 -55 488 0 c549 0 511 -6 465 75
l-23 40 -492 3 c-271 1 -492 0 -492 -3z"/>
<path d="M4412 3203 l-142 -4 17 -37 c13 -29 18 -79 22 -232 l6 -195 667 -3
666 -2 27 53 c20 43 26 69 26 126 1 120 -61 220 -168 272 l-48 24 -465 0
c-256 1 -529 -1 -608 -2z"/>
<path d="M6855 2331 c-63 -16 -117 -56 -144 -108 -8 -15 -11 -196 -11 -617 l0
-596 680 0 680 0 0 598 c0 570 -1 598 -19 628 -27 44 -79 81 -131 93 -51 12
-1007 13 -1055 2z"/>
<path d="M0 400 l0 -400 5000 0 5000 0 0 400 0 400 -5000 0 -5000 0 0 -400z
m2192 123 c23 -20 23 -57 1 -74 -15 -11 -16 -11 -5 1 27 31 11 72 -33 83 -19
4 -19 5 -1 6 11 0 28 -6 38 -16z m-69 -8 c-3 -9 -8 -14 -10 -11 -3 3 -2 9 2
15 9 16 15 13 8 -4z m-1760 -114 c22 -61 43 -108 47 -104 4 4 24 55 44 112 37
107 42 118 51 109 10 -10 -82 -253 -98 -256 -15 -3 -17 0 -67 143 -15 44 -31
88 -36 99 -5 13 -3 17 6 14 8 -2 32 -55 53 -117z m517 89 c0 -23 4 -30 20 -30
11 0 20 -4 20 -10 0 -5 -10 -10 -21 -10 -20 0 -21 -4 -17 -71 3 -55 8 -74 23
-85 10 -8 16 -16 13 -19 -11 -11 -40 8 -49 32 -12 33 -12 223 1 223 6 0 10
-13 10 -30z m520 15 c19 -10 27 -20 24 -30 -5 -13 -9 -13 -34 0 -36 18 -61 19
-84 2 -28 -21 -9 -45 49 -62 87 -25 108 -74 54 -127 -29 -29 -33 -30 -90 -25
-68 6 -72 8 -64 29 5 12 13 13 44 5 51 -14 103 6 99 37 -2 12 -14 26 -27 31
-104 43 -120 59 -107 111 11 42 82 57 136 29z m100 -15 c0 -25 4 -30 25 -30
16 0 25 -6 25 -15 0 -9 -9 -15 -25 -15 -25 0 -26 -1 -23 -62 3 -54 6 -64 26
-73 12 -5 22 -13 22 -18 0 -17 -31 -18 -55 -3 -24 16 -25 20 -25 131 0 96 3
115 15 115 10 0 15 -10 15 -30z m480 -31 l0 -61 39 31 c21 17 47 31 57 31 14
0 9 -9 -21 -40 -30 -30 -37 -44 -30 -55 6 -8 25 -35 43 -60 33 -44 33 -45 10
-45 -16 0 -32 13 -53 45 -16 24 -33 45 -37 45 -5 0 -8 -20 -8 -45 0 -38 -3
-45 -20 -45 -19 0 -20 7 -20 130 0 123 1 130 20 130 18 0 20 -7 20 -61z m195
29 c1 -20 -2 -24 -11 -17 -8 7 -14 6 -17 -3 -3 -7 -6 2 -6 20 -1 27 3 33 17
30 11 -2 17 -13 17 -30z m-44 -35 c13 -16 12 -17 -3 -4 -17 13 -22 21 -14 21
2 0 10 -8 17 -17z m-1502 -19 c12 -15 21 -40 21 -55 0 -29 0 -29 -65 -29 -72
0 -83 -12 -44 -51 17 -17 30 -20 65 -16 43 4 59 -5 28 -17 -63 -24 -134 23
-134 89 0 39 22 90 42 98 33 14 67 6 87 -19z m191 16 c17 -11 10 -13 -40 -10
-47 2 -75 -28 -75 -80 0 -55 26 -80 82 -80 27 0 42 -4 38 -10 -9 -15 -78 -12
-102 5 -50 35 -50 135 0 170 24 17 74 20 97 5z m267 -14 c24 -21 28 -32 28
-76 0 -44 -4 -55 -28 -76 -39 -33 -81 -31 -118 5 -85 86 27 225 118 147z m83
8 c0 -14 2 -14 22 0 24 17 38 20 38 9 0 -5 -14 -16 -30 -25 -29 -17 -30 -19
-30 -93 0 -43 -4 -75 -10 -75 -6 0 -10 40 -10 100 0 60 4 100 10 100 6 0 10
-7 10 -16z m545 -9 c20 -19 25 -34 25 -75 0 -63 -30 -100 -82 -100 -66 0 -103
56 -87 130 16 69 95 94 144 45z m184 16 c19 -12 3 -33 -20 -26 -30 10 -56 -3
-69 -35 -23 -55 18 -111 69 -95 23 7 39 -14 20 -26 -35 -22 -100 -1 -118 38
-6 13 -11 40 -11 59 0 65 79 117 129 85z m5380 -94 c8 -26 17 -47 21 -47 4 0
13 21 21 47 8 25 20 48 26 50 8 3 4 -21 -11 -64 -13 -38 -29 -68 -36 -68 -7 0
-23 30 -36 68 -15 43 -19 67 -11 64 6 -2 18 -25 26 -50z m638 38 c2 -6 -9 -11
-23 -10 -38 0 -40 -20 -5 -35 69 -28 36 -101 -33 -74 -27 10 -18 22 17 20 38
-1 43 19 8 37 -36 18 -48 42 -31 62 14 17 61 17 67 0z m333 -20 c0 -35 16 -47
26 -20 4 8 13 15 22 15 13 0 13 -3 -2 -19 -16 -18 -16 -21 -1 -50 19 -38 8
-40 -22 -3 l-22 27 -1 -27 c0 -16 -4 -28 -10 -28 -6 0 -10 30 -10 70 0 40 4
70 10 70 6 0 10 -16 10 -35z m580 32 c0 -4 -34 -104 -45 -136 -3 -8 -8 -11
-11 -8 -8 7 38 147 48 147 4 0 8 -2 8 -3z m70 -57 c0 -33 4 -60 10 -60 6 0 10
-4 10 -10 0 -5 -13 -10 -30 -10 -16 0 -30 5 -30 10 0 6 5 10 10 10 6 0 10 20
10 45 0 38 -2 43 -17 38 -16 -6 -16 -4 1 15 29 34 36 27 36 -38z m120 41 c-5
-11 -15 -23 -20 -26 -6 -4 -1 -14 12 -25 20 -15 21 -21 10 -44 -11 -26 -34
-32 -66 -20 -28 11 -17 24 14 18 22 -5 31 -2 36 11 6 16 -3 28 -31 39 -6 2 -5
9 3 17 18 19 15 29 -8 29 -11 0 -20 5 -20 10 0 6 18 10 40 10 37 0 40 -2 30
-19z m102 2 c39 -35 8 -122 -44 -123 -10 0 -18 5 -18 10 0 6 9 10 20 10 10 0
24 9 31 21 9 18 8 20 -9 15 -38 -12 -68 44 -40 72 17 17 38 15 60 -5z m120 0
c35 -32 12 -123 -32 -123 -30 0 -50 28 -50 70 0 62 42 89 82 53z m128 12 c0
-6 -60 -127 -66 -134 -2 -2 -7 -2 -10 1 -3 3 6 29 20 57 14 28 26 53 26 56 0
3 -13 5 -30 5 -16 0 -30 5 -30 10 0 6 20 10 45 10 25 0 45 -2 45 -5z m92 -47
c2 -29 2 -61 0 -70 -5 -22 -22 -24 -22 -3 0 10 -10 15 -30 15 -16 0 -30 3 -30
6 0 16 56 104 67 104 6 0 13 -22 15 -52z m116 40 c21 -21 13 -45 -25 -77 l-38
-30 43 -1 c23 0 42 -4 42 -10 0 -5 -22 -10 -50 -10 -62 0 -65 15 -14 63 42 40
39 62 -8 53 -26 -5 -29 -4 -18 9 15 18 51 20 68 3z m109 0 c14 -23 12 -106 -2
-118 -33 -27 -86 8 -70 46 4 11 7 27 6 37 -5 38 47 64 66 35z m-2068 -46 c-14
-6 -10 -60 4 -65 6 -2 9 -7 6 -11 -3 -3 -13 -4 -22 -1 -15 6 -26 62 -19 99 4
17 5 17 21 -1 10 -10 14 -19 10 -21z m361 13 c9 -10 9 -15 1 -15 -15 0 -14
-57 2 -63 6 -2 9 -7 6 -11 -15 -17 -37 8 -41 47 -7 58 5 74 32 42z m-532 -7
c23 -23 13 -38 -24 -38 -46 0 -41 -23 7 -30 27 -4 30 -7 16 -13 -42 -16 -77 6
-77 48 0 37 52 59 78 33z m109 5 c14 -6 10 -9 -17 -13 -29 -4 -35 -9 -35 -30
0 -21 5 -26 33 -28 36 -4 34 -22 -3 -22 -28 0 -55 24 -55 50 0 22 25 50 45 50
7 0 22 -3 32 -7z m177 -9 c31 -30 9 -84 -34 -84 -24 0 -50 26 -50 50 0 24 26
50 50 50 10 0 26 -7 34 -16z m86 6 c0 -4 -7 -10 -15 -14 -9 -3 -15 -19 -15
-41 0 -19 -4 -35 -10 -35 -5 0 -10 22 -10 49 0 45 2 49 25 49 14 0 25 -4 25
-8z m274 -6 c31 -30 9 -84 -34 -84 -24 0 -50 26 -50 50 0 24 26 50 50 50 10 0
26 -7 34 -16z m113 9 c14 -6 10 -9 -17 -13 -29 -4 -35 -9 -35 -30 0 -21 5 -26
33 -28 36 -4 34 -22 -3 -22 -28 0 -55 24 -55 50 0 22 25 50 45 50 7 0 22 -3
32 -7z m250 0 c14 -6 10 -9 -17 -13 -29 -4 -35 -9 -35 -30 0 -21 6 -26 35 -30
27 -4 31 -7 17 -13 -10 -4 -25 -7 -32 -7 -20 0 -45 28 -45 50 0 22 25 50 45
50 7 0 22 -3 32 -7z m107 -9 c31 -30 9 -84 -34 -84 -24 0 -50 26 -50 50 0 24
26 50 50 50 10 0 26 -7 34 -16z m113 4 c7 -5 14 -5 18 2 10 16 42 12 49 -6 10
-25 7 -84 -4 -84 -5 0 -10 18 -10 41 0 33 -3 40 -17 37 -13 -2 -19 -14 -21
-41 -4 -50 -22 -47 -22 4 0 36 -2 40 -22 37 -19 -2 -24 -10 -26 -40 -5 -55
-22 -46 -22 10 0 48 0 49 33 49 17 0 37 -4 44 -9z m-327 -78 c0 -5 -4 -10 -10
-10 -5 0 -10 5 -10 10 0 6 5 10 10 10 6 0 10 -4 10 -10z"/>
<path d="M2150 500 c0 -5 5 -10 10 -10 6 0 10 5 10 10 0 6 -4 10 -10 10 -5 0
-10 -4 -10 -10z"/>
<path d="M536 418 c-28 -39 -21 -48 39 -48 59 0 67 9 45 51 -15 27 -64 25 -84
-3z"/>
<path d="M986 424 c-50 -50 -21 -144 44 -144 48 0 80 50 66 104 -13 53 -75 75
-110 40z"/>
<path d="M1616 408 c-32 -46 -8 -118 39 -118 28 0 55 34 55 70 0 36 -27 70
-55 70 -13 0 -31 -10 -39 -22z"/>
<path d="M9074 375 c-4 -9 -2 -21 4 -27 15 -15 44 -1 40 19 -4 23 -36 29 -44
8z"/>
<path d="M9187 383 c-9 -8 -9 -56 -1 -77 10 -25 43 -19 50 9 9 37 -3 75 -25
75 -10 0 -21 -3 -24 -7z"/>
<path d="M9417 350 c-18 -29 -18 -30 2 -30 17 0 21 6 21 30 0 17 -1 30 -3 30
-1 0 -11 -13 -20 -30z"/>
<path d="M9642 374 c2 -11 11 -20 22 -22 13 -3 17 1 14 14 -2 11 -11 20 -22
22 -13 3 -17 -1 -14 -14z"/>
<path d="M9634 325 c-8 -21 10 -39 30 -32 22 9 20 24 -4 37 -16 9 -22 8 -26
-5z"/>
<path d="M7395 340 c-4 -6 5 -10 19 -10 14 0 26 5 26 10 0 6 -9 10 -19 10 -11
0 -23 -4 -26 -10z"/>
<path d="M7674 336 c-10 -26 4 -48 28 -44 17 2 23 10 23 28 0 18 -6 26 -23 28
-13 2 -25 -3 -28 -12z"/>
<path d="M8034 336 c-10 -26 4 -48 28 -44 17 2 23 10 23 28 0 18 -6 26 -23 28
-13 2 -25 -3 -28 -12z"/>
<path d="M8504 336 c-10 -26 4 -48 28 -44 17 2 23 10 23 28 0 18 -6 26 -23 28
-13 2 -25 -3 -28 -12z"/>
</g>
</svg>
